<svg xmlns="http://www.w3.org/2000/svg" width="794" height="121" viewBox="0 0 794 121"><polygon points="894.0,191.0 892.9,174.0 889.6,157.4 884.1,141.3 876.6,126.0 867.1,111.9 855.9,99.1 843.1,87.9 829.0,78.4 813.7,70.9 797.6,65.4 781.0,62.1 764.0,61.0 747.0,62.1 730.4,65.4 714.3,70.9 699.0,78.4 684.9,87.9 672.1,99.1 660.9,111.9 651.4,126.0 643.9,141.3 638.4,157.4 635.1,174.0 634.0,191.0 635.1,208.0 638.4,224.6 643.9,240.7 651.4,256.0 660.9,270.1 672.1,282.9 684.9,294.1 699.0,303.6 714.3,311.1 730.4,316.6 747.0,319.9 764.0,321.0 781.0,319.9 797.6,316.6 813.7,311.1 829.0,303.6 843.1,294.1 855.9,282.9 867.1,270.1 876.6,256.0 884.1,240.7 889.6,224.6 892.9,208.0 894.0,191.0 764.0,191.0 764.0,191.0 764.0,191.0 764.0,191.0 764.0,191.0 764.0,191.0 764.0,191.0 764.0,191.0 764.0,191.0 764.0,191.0 764.0,191.0 764.0,191.0 764.0,191.0 764.0,191.0 764.0,191.0 764.0,191.0 764.0,191.0 764.0,191.0 764.0,191.0 764.0,191.0 764.0,191.0 764.0,191.0 764.0,191.0 764.0,191.0 764.0,191.0 764.0,191.0 764.0,191.0 764.0,191.0 764.0,191.0 764.0,191.0 764.0,191.0 764.0,191.0 764.0,191.0 764.0,191.0 764.0,191.0 764.0,191.0 764.0,191.0 764.0,191.0 764.0,191.0 764.0,191.0 764.0,191.0 764.0,191.0 764.0,191.0 764.0,191.0 764.0,191.0 764.0,191.0 764.0,191.0 764.0,191.0 764.0,191.0" fill="#6b21a8" opacity="0.06"/><polygon points="349.4,121.0 794.0,121.0 794.0,85.0 492.3,85.0" fill="#6b21a8" opacity="1"/><polygon points="301.7,121.0 341.4,121.0 444.6,85.0 404.9,85.0" fill="#e9d5ff" opacity="1"/></svg>
